<mxfile host="app.diagrams.net" modified="2022-02-23T23:38:22.577Z" agent="5.0 (Macintosh; Intel Mac OS X 10_15_7) AppleWebKit/537.36 (KHTML, like Gecko) Chrome/98.0.4758.102 Safari/537.36" etag="ILdBA7R_lb5cwcX1ux_V" version="16.6.3" type="github">
  <diagram name="Page-1" id="e56a1550-8fbb-45ad-956c-1786394a9013">
    <mxGraphModel dx="1209" dy="752" grid="1" gridSize="10" guides="1" tooltips="1" connect="1" arrows="1" fold="1" page="1" pageScale="1" pageWidth="1100" pageHeight="850" background="none" math="0" shadow="0">
      <root>
        <mxCell id="0" />
        <mxCell id="1" parent="0" />
        <mxCell id="9QfMHfmA1CHi4QTp5Dwu-8" value="SUPPLIER" style="whiteSpace=wrap;html=1;align=center;" vertex="1" parent="1">
          <mxGeometry x="180" y="110" width="100" height="40" as="geometry" />
        </mxCell>
        <mxCell id="9QfMHfmA1CHi4QTp5Dwu-11" value="CHEF" style="whiteSpace=wrap;html=1;align=center;" vertex="1" parent="1">
          <mxGeometry x="170" y="340" width="100" height="40" as="geometry" />
        </mxCell>
        <mxCell id="9QfMHfmA1CHi4QTp5Dwu-12" value="WAIT_STAFF" style="shape=ext;margin=3;double=1;whiteSpace=wrap;html=1;align=center;" vertex="1" parent="1">
          <mxGeometry x="170" y="660" width="100" height="40" as="geometry" />
        </mxCell>
        <mxCell id="9QfMHfmA1CHi4QTp5Dwu-13" value="WORKS_AT" style="shape=rhombus;double=1;perimeter=rhombusPerimeter;whiteSpace=wrap;html=1;align=center;" vertex="1" parent="1">
          <mxGeometry x="340" y="550" width="120" height="60" as="geometry" />
        </mxCell>
        <mxCell id="9QfMHfmA1CHi4QTp5Dwu-23" style="edgeStyle=orthogonalEdgeStyle;rounded=0;orthogonalLoop=1;jettySize=auto;html=1;exitX=0.5;exitY=1;exitDx=0;exitDy=0;entryX=0;entryY=0;entryDx=0;entryDy=0;" edge="1" parent="1" source="9QfMHfmA1CHi4QTp5Dwu-17" target="9QfMHfmA1CHi4QTp5Dwu-8">
          <mxGeometry relative="1" as="geometry" />
        </mxCell>
        <mxCell id="9QfMHfmA1CHi4QTp5Dwu-17" value="Supplier_id" style="ellipse;whiteSpace=wrap;html=1;align=center;fontStyle=4;" vertex="1" parent="1">
          <mxGeometry y="30" width="100" height="40" as="geometry" />
        </mxCell>
        <mxCell id="9QfMHfmA1CHi4QTp5Dwu-24" style="edgeStyle=orthogonalEdgeStyle;rounded=0;orthogonalLoop=1;jettySize=auto;html=1;exitX=0.5;exitY=1;exitDx=0;exitDy=0;entryX=0.25;entryY=0;entryDx=0;entryDy=0;" edge="1" parent="1" source="9QfMHfmA1CHi4QTp5Dwu-18" target="9QfMHfmA1CHi4QTp5Dwu-8">
          <mxGeometry relative="1" as="geometry" />
        </mxCell>
        <mxCell id="9QfMHfmA1CHi4QTp5Dwu-18" value="License_number" style="ellipse;whiteSpace=wrap;html=1;align=center;" vertex="1" parent="1">
          <mxGeometry x="130" y="30" width="100" height="40" as="geometry" />
        </mxCell>
        <mxCell id="9QfMHfmA1CHi4QTp5Dwu-25" style="edgeStyle=orthogonalEdgeStyle;rounded=0;orthogonalLoop=1;jettySize=auto;html=1;exitX=0.5;exitY=1;exitDx=0;exitDy=0;" edge="1" parent="1" source="9QfMHfmA1CHi4QTp5Dwu-19">
          <mxGeometry relative="1" as="geometry">
            <mxPoint x="220" y="110" as="targetPoint" />
          </mxGeometry>
        </mxCell>
        <mxCell id="9QfMHfmA1CHi4QTp5Dwu-19" value="Year_of_founding" style="ellipse;whiteSpace=wrap;html=1;align=center;" vertex="1" parent="1">
          <mxGeometry x="250" y="30" width="100" height="40" as="geometry" />
        </mxCell>
        <mxCell id="9QfMHfmA1CHi4QTp5Dwu-26" style="edgeStyle=orthogonalEdgeStyle;rounded=0;orthogonalLoop=1;jettySize=auto;html=1;exitX=0.5;exitY=1;exitDx=0;exitDy=0;entryX=0.75;entryY=0;entryDx=0;entryDy=0;" edge="1" parent="1" source="9QfMHfmA1CHi4QTp5Dwu-20" target="9QfMHfmA1CHi4QTp5Dwu-8">
          <mxGeometry relative="1" as="geometry" />
        </mxCell>
        <mxCell id="9QfMHfmA1CHi4QTp5Dwu-20" value="Country_of_origin" style="ellipse;whiteSpace=wrap;html=1;align=center;" vertex="1" parent="1">
          <mxGeometry x="380" y="30" width="100" height="40" as="geometry" />
        </mxCell>
        <mxCell id="9QfMHfmA1CHi4QTp5Dwu-27" style="edgeStyle=orthogonalEdgeStyle;rounded=0;orthogonalLoop=1;jettySize=auto;html=1;exitX=0.5;exitY=1;exitDx=0;exitDy=0;" edge="1" parent="1" source="9QfMHfmA1CHi4QTp5Dwu-22">
          <mxGeometry relative="1" as="geometry">
            <mxPoint x="270" y="110" as="targetPoint" />
          </mxGeometry>
        </mxCell>
        <mxCell id="9QfMHfmA1CHi4QTp5Dwu-22" value="Emails" style="ellipse;shape=doubleEllipse;margin=3;whiteSpace=wrap;html=1;align=center;" vertex="1" parent="1">
          <mxGeometry x="500" y="30" width="100" height="40" as="geometry" />
        </mxCell>
        <mxCell id="9QfMHfmA1CHi4QTp5Dwu-39" style="edgeStyle=orthogonalEdgeStyle;rounded=0;orthogonalLoop=1;jettySize=auto;html=1;exitX=0.5;exitY=1;exitDx=0;exitDy=0;entryX=0;entryY=0;entryDx=0;entryDy=0;" edge="1" parent="1" source="9QfMHfmA1CHi4QTp5Dwu-28" target="9QfMHfmA1CHi4QTp5Dwu-37">
          <mxGeometry relative="1" as="geometry" />
        </mxCell>
        <mxCell id="9QfMHfmA1CHi4QTp5Dwu-28" value="Product_id" style="ellipse;whiteSpace=wrap;html=1;align=center;fontStyle=4;" vertex="1" parent="1">
          <mxGeometry x="560" y="110" width="100" height="40" as="geometry" />
        </mxCell>
        <mxCell id="9QfMHfmA1CHi4QTp5Dwu-40" style="edgeStyle=orthogonalEdgeStyle;rounded=0;orthogonalLoop=1;jettySize=auto;html=1;exitX=0.5;exitY=1;exitDx=0;exitDy=0;entryX=0.25;entryY=0;entryDx=0;entryDy=0;" edge="1" parent="1" source="9QfMHfmA1CHi4QTp5Dwu-29" target="9QfMHfmA1CHi4QTp5Dwu-37">
          <mxGeometry relative="1" as="geometry" />
        </mxCell>
        <mxCell id="9QfMHfmA1CHi4QTp5Dwu-29" value="Weight_per_unit" style="ellipse;whiteSpace=wrap;html=1;align=center;" vertex="1" parent="1">
          <mxGeometry x="670" y="110" width="100" height="40" as="geometry" />
        </mxCell>
        <mxCell id="9QfMHfmA1CHi4QTp5Dwu-41" style="edgeStyle=orthogonalEdgeStyle;rounded=0;orthogonalLoop=1;jettySize=auto;html=1;exitX=0.5;exitY=1;exitDx=0;exitDy=0;entryX=0.5;entryY=0;entryDx=0;entryDy=0;" edge="1" parent="1" source="9QfMHfmA1CHi4QTp5Dwu-30" target="9QfMHfmA1CHi4QTp5Dwu-37">
          <mxGeometry relative="1" as="geometry" />
        </mxCell>
        <mxCell id="9QfMHfmA1CHi4QTp5Dwu-30" value="Price_per_unit" style="ellipse;whiteSpace=wrap;html=1;align=center;" vertex="1" parent="1">
          <mxGeometry x="780" y="110" width="100" height="40" as="geometry" />
        </mxCell>
        <mxCell id="9QfMHfmA1CHi4QTp5Dwu-42" style="edgeStyle=orthogonalEdgeStyle;rounded=0;orthogonalLoop=1;jettySize=auto;html=1;exitX=0.5;exitY=1;exitDx=0;exitDy=0;entryX=0.75;entryY=0;entryDx=0;entryDy=0;" edge="1" parent="1" source="9QfMHfmA1CHi4QTp5Dwu-31" target="9QfMHfmA1CHi4QTp5Dwu-37">
          <mxGeometry relative="1" as="geometry" />
        </mxCell>
        <mxCell id="9QfMHfmA1CHi4QTp5Dwu-31" value="Short_description" style="ellipse;whiteSpace=wrap;html=1;align=center;" vertex="1" parent="1">
          <mxGeometry x="890" y="110" width="100" height="40" as="geometry" />
        </mxCell>
        <mxCell id="9QfMHfmA1CHi4QTp5Dwu-43" style="edgeStyle=orthogonalEdgeStyle;rounded=0;orthogonalLoop=1;jettySize=auto;html=1;exitX=0.5;exitY=1;exitDx=0;exitDy=0;entryX=0.895;entryY=0.027;entryDx=0;entryDy=0;entryPerimeter=0;" edge="1" parent="1" source="9QfMHfmA1CHi4QTp5Dwu-32" target="9QfMHfmA1CHi4QTp5Dwu-37">
          <mxGeometry relative="1" as="geometry" />
        </mxCell>
        <mxCell id="9QfMHfmA1CHi4QTp5Dwu-32" value="Availability_status" style="ellipse;whiteSpace=wrap;html=1;align=center;" vertex="1" parent="1">
          <mxGeometry x="1000" y="110" width="100" height="40" as="geometry" />
        </mxCell>
        <mxCell id="9QfMHfmA1CHi4QTp5Dwu-37" value="PRODUCT" style="whiteSpace=wrap;html=1;align=center;" vertex="1" parent="1">
          <mxGeometry x="850" y="300" width="100" height="40" as="geometry" />
        </mxCell>
        <mxCell id="9QfMHfmA1CHi4QTp5Dwu-38" value="RESTAURANT" style="whiteSpace=wrap;html=1;align=center;" vertex="1" parent="1">
          <mxGeometry x="500" y="470" width="100" height="40" as="geometry" />
        </mxCell>
        <mxCell id="9QfMHfmA1CHi4QTp5Dwu-44" value="OFFERS" style="shape=rhombus;perimeter=rhombusPerimeter;whiteSpace=wrap;html=1;align=center;" vertex="1" parent="1">
          <mxGeometry x="360" y="160" width="120" height="60" as="geometry" />
        </mxCell>
        <mxCell id="9QfMHfmA1CHi4QTp5Dwu-50" value="" style="endArrow=none;html=1;rounded=0;entryX=0;entryY=0.5;entryDx=0;entryDy=0;" edge="1" parent="1" target="9QfMHfmA1CHi4QTp5Dwu-44">
          <mxGeometry relative="1" as="geometry">
            <mxPoint x="280" y="130" as="sourcePoint" />
            <mxPoint x="440" y="130" as="targetPoint" />
          </mxGeometry>
        </mxCell>
        <mxCell id="9QfMHfmA1CHi4QTp5Dwu-51" value="1" style="resizable=0;html=1;align=right;verticalAlign=bottom;" connectable="0" vertex="1" parent="9QfMHfmA1CHi4QTp5Dwu-50">
          <mxGeometry x="1" relative="1" as="geometry" />
        </mxCell>
        <mxCell id="9QfMHfmA1CHi4QTp5Dwu-52" value="" style="shape=link;html=1;rounded=0;exitX=0;exitY=0.5;exitDx=0;exitDy=0;entryX=1;entryY=0.5;entryDx=0;entryDy=0;" edge="1" parent="1" source="9QfMHfmA1CHi4QTp5Dwu-37" target="9QfMHfmA1CHi4QTp5Dwu-44">
          <mxGeometry relative="1" as="geometry">
            <mxPoint x="590" y="300" as="sourcePoint" />
            <mxPoint x="340" y="430" as="targetPoint" />
          </mxGeometry>
        </mxCell>
        <mxCell id="9QfMHfmA1CHi4QTp5Dwu-53" value="N" style="resizable=0;html=1;align=right;verticalAlign=bottom;" connectable="0" vertex="1" parent="9QfMHfmA1CHi4QTp5Dwu-52">
          <mxGeometry x="1" relative="1" as="geometry" />
        </mxCell>
        <mxCell id="9QfMHfmA1CHi4QTp5Dwu-55" value="WORKS_FOR" style="shape=rhombus;perimeter=rhombusPerimeter;whiteSpace=wrap;html=1;align=center;" vertex="1" parent="1">
          <mxGeometry x="340" y="395" width="120" height="60" as="geometry" />
        </mxCell>
        <mxCell id="9QfMHfmA1CHi4QTp5Dwu-60" value="" style="shape=link;html=1;rounded=0;entryX=0;entryY=0.5;entryDx=0;entryDy=0;" edge="1" parent="1" target="9QfMHfmA1CHi4QTp5Dwu-55">
          <mxGeometry relative="1" as="geometry">
            <mxPoint x="270" y="360" as="sourcePoint" />
            <mxPoint x="430" y="360" as="targetPoint" />
          </mxGeometry>
        </mxCell>
        <mxCell id="9QfMHfmA1CHi4QTp5Dwu-61" value="1" style="resizable=0;html=1;align=right;verticalAlign=bottom;" connectable="0" vertex="1" parent="9QfMHfmA1CHi4QTp5Dwu-60">
          <mxGeometry x="1" relative="1" as="geometry" />
        </mxCell>
        <mxCell id="9QfMHfmA1CHi4QTp5Dwu-66" value="" style="shape=link;html=1;rounded=0;exitX=0;exitY=0.5;exitDx=0;exitDy=0;entryX=1;entryY=0.5;entryDx=0;entryDy=0;" edge="1" parent="1" source="9QfMHfmA1CHi4QTp5Dwu-38" target="9QfMHfmA1CHi4QTp5Dwu-55">
          <mxGeometry relative="1" as="geometry">
            <mxPoint x="490" y="420" as="sourcePoint" />
            <mxPoint x="460" y="370" as="targetPoint" />
          </mxGeometry>
        </mxCell>
        <mxCell id="9QfMHfmA1CHi4QTp5Dwu-67" value="1" style="resizable=0;html=1;align=right;verticalAlign=bottom;" connectable="0" vertex="1" parent="9QfMHfmA1CHi4QTp5Dwu-66">
          <mxGeometry x="1" relative="1" as="geometry" />
        </mxCell>
        <mxCell id="9QfMHfmA1CHi4QTp5Dwu-68" value="" style="shape=link;html=1;rounded=0;entryX=0;entryY=0.5;entryDx=0;entryDy=0;" edge="1" parent="1" target="9QfMHfmA1CHi4QTp5Dwu-13">
          <mxGeometry relative="1" as="geometry">
            <mxPoint x="270" y="680" as="sourcePoint" />
            <mxPoint x="430" y="680" as="targetPoint" />
          </mxGeometry>
        </mxCell>
        <mxCell id="9QfMHfmA1CHi4QTp5Dwu-69" value="N" style="resizable=0;html=1;align=right;verticalAlign=bottom;" connectable="0" vertex="1" parent="9QfMHfmA1CHi4QTp5Dwu-68">
          <mxGeometry x="1" relative="1" as="geometry" />
        </mxCell>
        <mxCell id="9QfMHfmA1CHi4QTp5Dwu-70" value="" style="endArrow=none;html=1;rounded=0;entryX=1;entryY=0.5;entryDx=0;entryDy=0;exitX=0;exitY=1;exitDx=0;exitDy=0;" edge="1" parent="1" source="9QfMHfmA1CHi4QTp5Dwu-38" target="9QfMHfmA1CHi4QTp5Dwu-13">
          <mxGeometry relative="1" as="geometry">
            <mxPoint x="480" y="530" as="sourcePoint" />
            <mxPoint x="640" y="530" as="targetPoint" />
          </mxGeometry>
        </mxCell>
        <mxCell id="9QfMHfmA1CHi4QTp5Dwu-71" value="1" style="resizable=0;html=1;align=right;verticalAlign=bottom;" connectable="0" vertex="1" parent="9QfMHfmA1CHi4QTp5Dwu-70">
          <mxGeometry x="1" relative="1" as="geometry" />
        </mxCell>
        <mxCell id="9QfMHfmA1CHi4QTp5Dwu-72" value="" style="shape=rhombus;perimeter=rhombusPerimeter;whiteSpace=wrap;html=1;align=center;" vertex="1" parent="1">
          <mxGeometry x="660" y="395" width="120" height="60" as="geometry" />
        </mxCell>
        <mxCell id="9QfMHfmA1CHi4QTp5Dwu-73" value="" style="endArrow=none;html=1;rounded=0;" edge="1" parent="1" target="9QfMHfmA1CHi4QTp5Dwu-72">
          <mxGeometry relative="1" as="geometry">
            <mxPoint x="600" y="490" as="sourcePoint" />
            <mxPoint x="760" y="490" as="targetPoint" />
          </mxGeometry>
        </mxCell>
        <mxCell id="9QfMHfmA1CHi4QTp5Dwu-74" value="1" style="resizable=0;html=1;align=right;verticalAlign=bottom;" connectable="0" vertex="1" parent="9QfMHfmA1CHi4QTp5Dwu-73">
          <mxGeometry x="1" relative="1" as="geometry" />
        </mxCell>
      </root>
    </mxGraphModel>
  </diagram>
</mxfile>
